#!OML:ASF F:\VICON\USERDATA\INSTALL\rory3\rory3.ASF
:FULLY-SPECIFIED
:DEGREES
3766
root -2.67939 14.7617 -13.8583 -561.546 -65.1656 556.503
lowerback 17.2459 0.250919 -2.5115
upperback -0.181277 0.221565 5.92772
thorax -9.97444 0.332159 7.95681
lowerneck -11.1611 -4.87052 -1.29657
upperneck 17.9772 -6.55903 -0.895748
head 7.3687 -3.41186 -0.71965
rclavicle -2.65564e-014 7.07673e-014
rhumerus -19.3065 30.6728 -79.9352
rradius 47.8013
rwrist 27.6896
rhand -19.5974 34.3167
rfingers 7.12502
rthumb 6.72852 4.44363
lclavicle -2.65564e-014 7.07673e-014
lhumerus 46.2068 -41.1579 51.7297
lradius 71.0568
lwrist 72.166
lhand 6.47146 25.6248
lfingers 7.12502
lthumb 31.7725 52.8761
rfemur 4.22293 -3.34343 7.22806
rtibia 31.6879
rfoot -26.5157 0.634211
rtoes -37.3492
lfemur -37.8112 18.4897 -7.87931
ltibia 67.5223
lfoot -16.1759 -5.08023
ltoes 18.5483
3767
root -2.67698 14.7576 -13.8517 -561.156 -64.9601 556.239
lowerback 17.1224 0.336961 -2.41985
upperback -0.168607 0.352204 5.88848
thorax -9.90918 0.386806 7.81889
lowerneck -11.1978 -4.86048 -1.22996
upperneck 17.9017 -6.5452 -0.926561
head 7.34698 -3.40184 -0.738216
rclavicle 9.26834e-015 -4.05521e-014
rhumerus -19.1779 30.8451 -79.9058
rradius 47.6463
rwrist 27.3801
rhand -19.6102 34.1727
rfingers 7.12502
rthumb 6.71613 4.29922
lclavicle 9.26834e-015 -4.05521e-014
lhumerus 46.188 -40.9977 51.68
lradius 71.1598
lwrist 72.2983
lhand 6.34607 25.6162
lfingers 7.12502
lthumb 31.653 52.8911
rfemur 3.85988 -3.30231 7.13148
rtibia 31.6877
rfoot -26.2375 0.421746
rtoes -38.1895
lfemur -38.0564 18.6634 -8.01188
ltibia 67.6428
lfoot -16.241 -4.86568
ltoes 17.7051
3768
root -2.68335 14.7667 -13.908 -562.274 -65.4283 556.95
lowerback 17.3139 0.32919 -2.81204
upperback -0.0477293 0.263908 6.02123
thorax -9.87472 0.361773 8.22767
lowerneck -11.1533 -4.89028 -1.22799
upperneck 17.9465 -6.59808 -0.887638
head 7.35512 -3.42452 -0.730794
rclavicle 3.21596e-014 4.37326e-014
rhumerus -19.2632 30.5325 -79.8562
rradius 47.4908
rwrist 27.5038
rhand -19.5312 34.5449
rfingers 7.12502
rthumb 6.7924 4.67388
lclavicle 3.21596e-014 4.37326e-014
lhumerus 46.1511 -41.1294 51.641
lradius 71.3304
lwrist 72.435
lhand 5.90982 25.1556
lfingers 7.12502
lthumb 31.2374 52.5116
rfemur 4.57418 -3.10965 7.68282
rtibia 32.0446
rfoot -26.775 -0.0317621
rtoes -37.4328
lfemur -37.3731 18.5221 -7.49533
ltibia 67.2789
lfoot -16.0599 -5.36531
ltoes 17.2654
3769
root -2.6824 14.7486 -13.9061 -563.251 -65.2892 558.111
lowerback 17.3592 0.316453 -2.08986
upperback -0.141563 0.398397 6.12188
thorax -10.0214 0.395425 7.88777
lowerneck -11.081 -4.94024 -1.37441
upperneck 17.9844 -6.66502 -0.780516
head 7.36412 -3.45779 -0.678039
rclavicle 3.97134e-014 -4.53229e-014
rhumerus -19.4193 30.2275 -79.8458
rradius 47.4036
rwrist 27.7584
rhand -19.5633 34.6803
rfingers 7.12502
rthumb 6.76142 4.80831
lclavicle 3.97134e-014 -4.53229e-014
lhumerus 46.2742 -41.288 51.5264
lradius 71.4359
lwrist 72.4955
lhand 5.36312 24.6559
lfingers 7.12502
lthumb 30.7163 52.1111
rfemur 4.42815 -3.49635 8.0718
rtibia 32.1311
rfoot -26.6735 0.175313
rtoes -37.3171
lfemur -37.7228 18.6359 -6.99251
ltibia 67.4736
lfoot -16.0336 -5.44862
ltoes 16.8773
3770
root -2.7099 14.7852 -13.8142 -550.799 -67.7561 545.818
lowerback 16.4948 0.233937 -5.91059
upperback -0.633637 -0.49885 4.3943
thorax -9.92452 0.173277 8.37839
lowerneck -11.069 -4.99626 -1.57134
upperneck 17.9912 -6.72398 -0.685736
head 7.3752 -3.49025 -0.621466
rclavicle 6.21948e-014 -7.15625e-015
rhumerus -19.5042 30.148 -79.7335
rradius 47.4759
rwrist 27.772
rhand -19.4529 34.6501
rfingers 7.12502
rthumb 6.86794 4.78148
lclavicle 6.21948e-014 -7.15625e-015
lhumerus 46.2964 -41.3036 51.5604
lradius 71.5197
lwrist 72.4755
lhand 5.0411 24.5019
lfingers 7.12502
lthumb 30.4092 52.0143
rfemur 3.78209 -6.4555 0.779418
rtibia 32.2902
rfoot -26.3305 2.58755
rtoes -37.5512
lfemur -38.0063 16.4583 -14.1001
ltibia 66.3984
lfoot -16.6641 -3.61766
ltoes 17.1089
3771
root -2.69183 14.7527 -13.9 -560.965 -66.0183 555.816
lowerback 17.1251 0.385794 -2.88444
upperback -0.212611 0.328774 5.78247
thorax -9.95894 0.405181 7.97972
lowerneck -11.0746 -4.96168 -1.27055
upperneck 17.8655 -6.66509 -0.993934
head 7.3125 -3.46844 -0.760235
rclavicle 1.99157e-014 6.36111e-014
rhumerus -19.486 29.8568 -79.612
rradius 47.3725
rwrist 27.9644
rhand -19.3172 34.7949
rfingers 7.12502
rthumb 6.99897 4.93063
lclavicle 1.99157e-014 6.36111e-014
lhumerus 46.2985 -41.2821 51.6701
lradius 71.5435
lwrist 72.4865
lhand 5.13558 24.7164
lfingers 7.12502
lthumb 30.4993 52.2121
rfemur 4.37932 -3.88412 6.69792
rtibia 32.2308
rfoot -26.7641 0.308699
rtoes -37.3508
lfemur -37.7121 18.1454 -8.44601
ltibia 67.0631
lfoot -15.8506 -5.18099
ltoes 18.313
3772
root -2.6877 14.7431 -13.9083 -562.346 -65.6021 557.297
lowerback 17.0949 0.416133 -2.33205
upperback -0.130534 0.482163 6.04968
thorax -9.87332 0.444416 7.91564
lowerneck -11.0204 -4.86036 -1.00142
upperneck 17.6562 -6.51308 -1.27393
head 7.21486 -3.40144 -0.872254
rclavicle 6.52262e-016 -9.54166e-015
rhumerus -19.3371 29.8253 -79.4984
rradius 47.2548
rwrist 28.0838
rhand -19.3458 34.8691
rfingers 7.12502
rthumb 6.97133 5.00386
lclavicle 6.52262e-016 -9.54166e-015
lhumerus 46.2614 -41.074 51.685
lradius 71.6232
lwrist 72.5202
lhand 5.02443 24.7433
lfingers 7.12502
lthumb 30.3933 52.2587
rfemur 4.07679 -3.44635 7.66293
rtibia 32.6289
rfoot -26.8782 -0.0902139
rtoes -37.3782
lfemur -37.8135 18.5067 -7.5825
ltibia 67.0566
lfoot -15.6863 -5.16235
ltoes 17.2079
3773
root -2.7232 14.7862 -13.9188 -554.84 -68.4843 549.36
lowerback 16.4974 0.118009 -5.90982
upperback -0.197434 -0.628871 5.03286
thorax -9.41249 0.0758684 9.12166
lowerneck -11.0535 -4.86918 -1.06113
upperneck 17.6142 -6.51785 -1.2325
head 7.21066 -3.40258 -0.849814
rclavicle 4.01048e-014 9.54166e-015
rhumerus -19.3073 29.9654 -79.4402
rradius 47.2059
rwrist 27.8922
rhand -19.376 34.5899
rfingers 7.12502
rthumb 6.94222 4.72373
lclavicle 4.01048e-014 9.54166e-015
lhumerus 46.2304 -40.9183 51.7305
lradius 71.6221
lwrist 72.5404
lhand 5.22976 24.7018
lfingers 7.12502
lthumb 30.5891 52.1807
rfemur 5.12621 -5.36466 3.07651
rtibia 32.6894
rfoot -27.5015 0.857619
rtoes -36.8212
lfemur -37.1928 16.4805 -12.1972
ltibia 66.1735
lfoot -16.2967 -4.36504
ltoes 15.6134
3774
root -2.7051 14.7624 -13.834 -553.192 -67.3904 548.602
lowerback 16.2039 0.363064 -4.85632
upperback -0.57582 -0.0903621 4.78101
thorax -9.76922 0.308991 8.08397
lowerneck -10.9525 -4.91748 -1.16642
upperneck 17.5629 -6.58661 -1.12194
head 7.18388 -3.43283 -0.799771
rclavicle -6.23066e-015 -1.43125e-014
rhumerus -19.4499 30.0774 -79.4593
rradius 47.1878
rwrist 27.7532
rhand -19.2865 34.4008
rfingers 7.12502
rthumb 7.0286 4.53747
lclavicle -6.23066e-015 -1.43125e-014
lhumerus 46.1346 -40.9217 51.8045
lradius 71.6472
lwrist 72.6868
lhand 5.46163 24.7193
lfingers 7.12502
lthumb 30.8102 52.1567
rfemur 2.90226 -5.78739 2.35854
rtibia 33.2048
rfoot -26.6243 2.0667
rtoes -37.1849
lfemur -38.5624 16.9982 -12.8897
ltibia 66.3064
lfoot -16.0801 -3.61714
ltoes 16.2042
3775
root -2.70923 14.7657 -13.8452 -553.069 -67.5691 548.503
lowerback 16.0337 0.34005 -5.07765
upperback -0.515894 -0.154179 4.8498
thorax -9.59507 0.281696 8.29924
lowerneck -11.0097 -4.87399 -1.21036
upperneck 17.5234 -6.50425 -1.17324
head 7.18093 -3.39934 -0.8022
rclavicle -6.06231e-014 -2.06736e-014
rhumerus -19.3452 30.2359 -79.3534
rradius 47.1123
rwrist 27.8326
rhand -19.2818 34.1298
rfingers 7.12502
rthumb 7.03316 4.2666
lclavicle -6.06231e-014 -2.06736e-014
lhumerus 45.9989 -40.6961 51.9334
lradius 71.7023
lwrist 72.6125
lhand 5.58528 24.6331
lfingers 7.12502
lthumb 30.9281 52.0483
rfemur 2.81109 -5.86989 2.32452
rtibia 33.5168
rfoot -26.8334 1.85769
rtoes -37.6829
lfemur -38.5286 16.9053 -12.9468
ltibia 66.0593
lfoot -15.848 -3.81824
ltoes 16.9475
3776
root -2.71211 14.7655 -13.8591 -552.962 -67.7887 548.382
lowerback 16.0295 0.32744 -5.20752
upperback -0.542704 -0.194461 4.83567
thorax -9.61532 0.271352 8.37034
lowerneck -10.9428 -4.87946 -1.14481
upperneck 17.4729 -6.50629 -1.26753
head 7.14699 -3.40474 -0.839922
rclavicle -2.76994e-014 -2.54444e-014
rhumerus -19.3698 29.902 -79.3795
rradius 46.9918
rwrist 28.2317
rhand -19.2544 34.1215
rfingers 7.12502
rthumb 7.05959 4.25924
lclavicle -2.76994e-014 -2.54444e-014
lhumerus 45.7945 -40.6529 52.0184
lradius 71.8316
lwrist 72.5968
lhand 5.53971 24.681
lfingers 7.12502
lthumb 30.8846 52.1044
rfemur 2.76586 -5.98575 2.27021
rtibia 33.8755
rfoot -26.9968 1.86283
rtoes -37.3022
lfemur -38.5561 16.8211 -12.9985
ltibia 66.1514
lfoot -15.8856 -4.02884
ltoes 17.2802
3777
root -2.71122 14.7658 -13.8752 -553.22 -67.8773 548.617
lowerback 16.1585 0.388511 -5.12635
upperback -0.617258 -0.101578 4.79875
thorax -9.78864 0.322062 8.26607
lowerneck -10.8989 -4.96308 -1.18777
upperneck 17.5638 -6.6435 -1.139
head 7.17488 -3.46337 -0.80551
rclavicle -8.18061e-014 0
rhumerus -19.5574 29.4627 -79.426
rradius 46.9091
rwrist 28.4594
rhand -19.1631 34.1906
rfingers 7.12502
rthumb 7.14771 4.33128
lclavicle -8.18061e-014 0
lhumerus 45.5748 -40.8055 52.0629
lradius 72.0514
lwrist 72.6308
lhand 5.601 24.8127
lfingers 7.12502
lthumb 30.943 52.225
rfemur 2.83251 -5.84614 2.4882
rtibia 33.972
rfoot -27.0629 1.76187
rtoes -36.7793
lfemur -38.5625 16.8939 -12.8348
ltibia 66.233
lfoot -15.905 -4.17587
ltoes 17.0556
3778
root -2.70877 14.7625 -13.8847 -554.039 -67.697 549.481
lowerback 16.1087 0.428233 -4.94219
upperback -0.536291 -0.00435887 4.98352
thorax -9.68846 0.354017 8.33947
lowerneck -11.0899 -4.89194 -1.35342
upperneck 17.6667 -6.53626 -1.00823
head 7.25279 -3.40938 -0.735011
rclavicle 1.32999e-014 -4.05521e-014
rhumerus -19.3971 29.6765 -79.2303
rradius 46.8334
rwrist 28.3401
rhand -19.1572 34.3407
rfingers 7.12502
rthumb 7.15341 4.48163
lclavicle 1.32999e-014 -4.05521e-014
lhumerus 45.436 -40.5996 52.2269
lradius 72.1056
lwrist 72.6102
lhand 5.63376 24.8552
lfingers 7.12502
lthumb 30.9743 52.2615
rfemur 2.86281 -5.54161 3.01966
rtibia 33.7743
rfoot -26.8966 1.72957
rtoes -36.0089
lfemur -38.6309 17.1289 -12.3761
ltibia 66.2989
lfoot -15.8341 -4.33021
ltoes 17.0125
